<svg xmlns="http://www.w3.org/2000/svg" xmlns:xlink="http://www.w3.org/1999/xlink" zoomAndPan="magnify" viewBox="407 -20 686 1403" preserveAspectRatio="xMidYMid meet" version="1.0"><style>svg{color:#000000}@media(prefers-color-scheme:dark){svg{color:#ffffff}}</style><defs><g/><clipPath id="52afa74c16"><path d="M 166 0 L 556 0 L 556 1363 L 166 1363 Z M 166 0 " clip-rule="nonzero"/></clipPath><clipPath id="45497b33b5"><path d="M 444 0 L 812 0 L 812 1094 L 444 1094 Z M 444 0 " clip-rule="nonzero"/></clipPath><clipPath id="bd88975f80"><rect x="0" y="0"/></clipPath></defs><g transform="matrix(1, 0, 0, 1, 261, 0.000000000000112861)"><g clip-path="url(#bd88975f80)"><g clip-path="url(#52afa74c16)"><g fill="currentColor" fill-opacity="1"><g transform="translate(71.158287, 1093.388017)"><g><path d="M 95.0625 243.09375 L 95.0625 -1114.9375 C 95.0625 -1122.1875 97.773438 -1128.300781 103.203125 -1133.28125 C 108.640625 -1138.257812 114.523438 -1140.75 120.859375 -1140.75 L 156.171875 -1140.75 C 163.410156 -1140.75 169.519531 -1138.257812 174.5 -1133.28125 C 179.476562 -1128.300781 181.96875 -1122.1875 181.96875 -1114.9375 L 181.96875 186.046875 L 459.015625 186.046875 C 466.253906 186.046875 472.363281 188.535156 477.34375 193.515625 C 482.320312 198.492188 484.8125 204.609375 484.8125 211.859375 L 484.8125 243.09375 C 484.8125 249.425781 482.320312 255.304688 477.34375 260.734375 C 472.363281 266.171875 466.253906 268.890625 459.015625 268.890625 L 120.859375 268.890625 C 114.523438 268.890625 108.640625 266.171875 103.203125 260.734375 C 97.773438 255.304688 95.0625 249.425781 95.0625 243.09375 Z M 95.0625 243.09375 "/></g></g></g></g><g clip-path="url(#45497b33b5)"><g fill="currentColor" fill-opacity="1"><g transform="translate(349.554574, 1093.388017)"><g><path d="M 346.296875 -530.984375 L 180.625 -530.984375 L 180.625 -25.796875 C 180.625 -19.460938 178.132812 -13.578125 173.15625 -8.140625 C 168.175781 -2.710938 162.0625 0 154.8125 0 L 120.859375 0 C 113.617188 0 107.507812 -2.710938 102.53125 -8.140625 C 97.550781 -13.578125 95.0625 -19.460938 95.0625 -25.796875 L 95.0625 -1114.9375 C 95.0625 -1122.1875 97.550781 -1128.300781 102.53125 -1133.28125 C 107.507812 -1138.257812 113.617188 -1140.75 120.859375 -1140.75 L 419.625 -1140.75 C 426.875 -1140.75 435.703125 -1139.390625 446.109375 -1136.671875 C 456.523438 -1133.953125 461.734375 -1123.992188 461.734375 -1106.796875 L 461.734375 -696.671875 C 461.734375 -680.367188 454.035156 -666.332031 438.640625 -654.5625 C 423.253906 -642.800781 401.070312 -636.921875 372.09375 -636.921875 L 372.09375 -1060.625 L 180.625 -1060.625 L 180.625 -609.75 L 346.296875 -609.75 C 353.535156 -609.75 359.644531 -607.257812 364.625 -602.28125 C 369.601562 -597.300781 372.09375 -591.191406 372.09375 -583.953125 L 372.09375 -558.15625 C 372.09375 -550.90625 369.601562 -544.5625 364.625 -539.125 C 359.644531 -533.695312 353.535156 -530.984375 346.296875 -530.984375 Z M 459.015625 -437.28125 L 459.015625 -25.796875 C 459.015625 -19.460938 456.523438 -13.578125 451.546875 -8.140625 C 446.566406 -2.710938 440.457031 0 433.21875 0 L 397.90625 0 C 391.5625 0 385.671875 -2.710938 380.234375 -8.140625 C 374.804688 -13.578125 372.09375 -19.460938 372.09375 -25.796875 L 372.09375 -501.109375 C 400.164062 -500.203125 421.671875 -494.992188 436.609375 -485.484375 C 451.546875 -475.984375 459.015625 -459.914062 459.015625 -437.28125 Z M 459.015625 -437.28125 "/></g></g></g></g></g></g></svg>